:SAMPLES-PER-SECOND 30
:FRAME-RANGE 1-3535
:FULLY-SPECIFIED
:DEGREES
2983
root  -27.1292 39.6979 -17.1928 170.401 75.5076 165.662
RightUpLeg  -21.1413 -10.2712 -4.74274
RightLeg  16.3815 -8.0916 -2.85732
RightFoot  0.388833 -0.937737 9.13597
RightToes  1.22775e-009 1.2921e-014 -6.02303e-014
Spine  11.5373 -1.44857 -2.1672
Spine1  1.2962 -1.22137 -1.58063
HEad  1.05111 -1.7035 -5.58115
LeftShoulder1  1.33408 -0.527815 -26.958
LeftArm  -19.8212 -11.8807 -23.4056
LeftForeArm  27.3807 -70.6008 -31.1072
LeftHand  0.248161 1.31213 -7.37215
RightShoulder  4.67655 9.23953 30.7788
RightArm  -7.14189 4.09522 4.41791
RightForeArm  33.15 76.8324 57.85
RightHand  0.16683 -3.23813 10.2859
LeftUpLeg  -8.63942 6.96949 0.682346
LeftLeg  10.2324 2.65849 -2.6929
LeftFoot  -5.67084 0.220697 -3.7687
LeftToes  2.52163e-011 5.65494e-011 -1.09494e-012
2984
root  -26.6779 39.774 -17.1315 171.375 75.4976 166.373
RightUpLeg  -19.5371 -8.54086 -4.92173
RightLeg  9.58726 -11.2887 -0.810967
RightFoot  4.35635 -0.226111 1.85591
RightToes  1.22775e-009 1.2921e-014 -6.02303e-014
Spine  11.558 -1.39582 -1.12464
Spine1  1.67039 -1.26566 -1.07316
HEad  0.671862 -1.5542 -5.45741
LeftShoulder1  1.36712 -0.653561 -26.7465
LeftArm  -17.3222 -12.9466 -23.9873
LeftForeArm  19.8745 -66.9862 -25.6817
LeftHand  0.276412 1.14695 -7.83405
RightShoulder  4.83733 9.36424 31.682
RightArm  -6.78854 3.76864 4.57057
RightForeArm  22.5201 74.6422 45.9613
RightHand  0.22286 -2.74448 10.6803
LeftUpLeg  -7.84417 7.0841 1.03238
LeftLeg  9.37099 2.39599 -2.47826
LeftFoot  -5.69789 0.228195 -3.9356
LeftToes  2.52163e-011 5.65494e-011 -1.09494e-012
2985
root  -26.2078 39.7498 -17.0358 171.536 75.1569 166.389
RightUpLeg  -19.0915 -9.37378 -5.00802
RightLeg  9.96596 -11.1518 -0.203222
RightFoot  3.7091 -0.241216 2.01733
RightToes  1.22775e-009 1.2921e-014 -6.02303e-014
Spine  11.7249 -1.3791 0.179436
Spine1  2.13305 -1.20097 -1.112
HEad  0.400805 -1.64206 -5.63278
LeftShoulder1  1.44165 -0.897331 -26.6169
LeftArm  -13.1883 -14.6944 -24.4376
LeftForeArm  13.8899 -63.2 -21.6381
LeftHand  0.284142 1.10823 -7.96729
RightShoulder  4.99439 9.44074 32.6778
RightArm  -6.19872 3.42979 4.84422
RightForeArm  13.7974 71.9367 37.3655
RightHand  0.256623 -2.38614 10.6129
LeftUpLeg  -7.66889 7.08194 0.921399
LeftLeg  9.9699 1.96362 -1.63587
LeftFoot  -6.42965 0.237192 -4.6302
LeftToes  2.52163e-011 5.65494e-011 -1.09494e-012
2986
root  -25.8484 39.6879 -16.9603 174.206 75.1583 168.937
RightUpLeg  -19.3831 -10.963 -4.12661
RightLeg  11.2089 -9.78295 0.424636
RightFoot  2.97982 -0.19743 1.73299
RightToes  1.22775e-009 1.2921e-014 -6.02303e-014
Spine  12.1696 -1.4597 2.68051
Spine1  2.21889 -0.935018 -1.64922
HEad  0.555793 -1.45314 -6.45003
LeftShoulder1  1.52879 -1.17271 -26.552
LeftArm  -9.37289 -16.4794 -26.2098
LeftForeArm  10.6277 -58.6828 -17.8528
LeftHand  0.353364 0.384384 -8.31533
RightShoulder  5.2003 9.70288 33.4685
RightArm  -5.46105 3.70273 5.39577
RightForeArm  6.65241 68.3502 29.9864
RightHand  0.303438 -1.86601 10.4684
LeftUpLeg  -8.49219 7.39481 1.23292
LeftLeg  12.0817 1.3932 -0.32165
LeftFoot  -7.60733 0.215608 -5.21368
LeftToes  2.52163e-011 5.65494e-011 -1.09494e-012
2987
root  -25.4522 39.5722 -16.8632 178.347 75.1984 173.119
RightUpLeg  -19.7617 -11.7057 -2.72157
RightLeg  13.0153 -9.21344 0.523426
RightFoot  1.53342 -0.136156 1.29899
RightToes  1.22775e-009 1.2921e-014 -6.02303e-014
Spine  12.2063 -1.41517 4.3197
Spine1  2.79629 -0.976913 -0.592071
HEad  1.39078 -0.714328 -7.04808
LeftShoulder1  1.61179 -1.46467 -26.2958
LeftArm  -6.50905 -17.2455 -28.6199
LeftForeArm  7.94222 -55.4408 -15.8187
LeftHand  0.403391 0.0160598 -8.77663
RightShoulder  5.68986 10.6966 34.1483
RightArm  -4.4503 4.44036 5.62521
RightForeArm  0.573433 64.6586 24.9811
RightHand  0.332247 -1.75044 11.0326
LeftUpLeg  -9.79035 8.36568 2.38862
LeftLeg  15.4903 0.354717 0.259637
LeftFoot  -8.92216 0.171139 -5.57117
LeftToes  2.52163e-011 5.65494e-011 -1.09494e-012
2988
root  -25.031 39.4569 -16.6998 -179.884 74.7147 175.115
RightUpLeg  -19.9187 -12.4521 -1.85931
RightLeg  15.0751 -9.06707 0.274811
RightFoot  -0.179931 -0.107836 1.09058
RightToes  1.22775e-009 1.2921e-014 -6.02303e-014
Spine  12.2929 -1.32745 4.17196
Spine1  3.31433 -1.40317 1.55612
HEad  3.83344 0.162835 -7.19588
LeftShoulder1  1.67071 -1.64568 -26.3016
LeftArm  -4.65781 -17.9248 -30.7742
LeftForeArm  6.91191 -52.9656 -14.4262
LeftHand  0.470213 -0.552219 -9.17156
RightShoulder  6.22532 11.6458 35.152
RightArm  -3.64671 5.05724 5.75626
RightForeArm  -4.1065 63.1495 23.6329
RightHand  0.28933 -2.21561 11.201
LeftUpLeg  -11.1934 8.28366 3.46802
LeftLeg  19.5237 -0.154697 0.265999
LeftFoot  -9.50089 0.170466 -7.06597
LeftToes  2.52163e-011 5.65494e-011 -1.09494e-012
2989
root  -24.6446 39.3365 -16.5267 -179.453 74.1325 175.789
RightUpLeg  -20.2393 -14.2127 -1.0286
RightLeg  17.3134 -7.68621 -0.0431435
RightFoot  -1.91794 -0.0833617 0.852614
RightToes  1.22775e-009 1.2921e-014 -6.02303e-014
Spine  12.599 -1.40958 4.38161
Spine1  3.48712 -1.68477 2.52768
HEad  6.602 0.783056 -7.15811
LeftShoulder1  1.71727 -1.77366 -26.4019
LeftArm  -2.90381 -19.0978 -32.1434
LeftForeArm  6.73425 -50.5592 -13.1742
LeftHand  0.478166 -0.880094 -8.8002
RightShoulder  6.59961 12.1032 36.3187
RightArm  -3.72897 5.35608 6.15145
RightForeArm  -4.43998 63.8342 24.4861
RightHand  0.24926 -2.57602 11.0868
LeftUpLeg  -13.0376 7.69633 4.33845
LeftLeg  24.253 -0.288603 0.189174
LeftFoot  -9.34911 0.219663 -9.4026
LeftToes  2.52163e-011 5.65494e-011 -1.09494e-012
2990
root  -24.3102 39.2688 -16.38 -179.35 73.7818 175.947
RightUpLeg  -20.3796 -14.6569 -0.644969
RightLeg  18.7577 -7.61019 -0.369904
RightFoot  -3.14936 -0.0754026 0.753495
RightToes  1.22775e-009 1.2921e-014 -6.02303e-014
Spine  12.5699 -1.52644 5.23943
Spine1  3.9258 -1.69139 2.34206
HEad  8.9764 0.937383 -7.36142
LeftShoulder1  1.75083 -1.91451 -26.1683
LeftArm  -2.27421 -20.1924 -32.9772
LeftForeArm  4.80977 -48.8114 -12.4878
LeftHand  0.506733 -0.974379 -9.17962
RightShoulder  6.81071 12.1811 37.4231
RightArm  -4.74701 5.44888 6.83562
RightForeArm  -0.894218 66.4134 27.6638
RightHand  0.233486 -2.72088 11.0467
LeftUpLeg  -15.0154 7.27205 4.91636
LeftLeg  28.4695 -0.0074264 0.333177
LeftFoot  -8.01168 0.388675 -11.6938
LeftToes  2.52163e-011 5.65494e-011 -1.09494e-012
2991
root  -23.9859 39.2585 -16.2716 -179.781 73.5397 175.53
RightUpLeg  -20.1806 -14.4166 -0.607479
RightLeg  19.5016 -8.01104 -0.706104
RightFoot  -4.03284 -0.0672972 0.669523
RightToes  1.22775e-009 1.2921e-014 -6.02303e-014
Spine  12.2219 -1.71745 5.69485
Spine1  4.67195 -1.82359 2.12872
HEad  10.7551 1.46564 -7.89167
LeftShoulder1  1.76369 -1.9643 -26.1074
LeftArm  -3.20611 -20.6071 -33.0432
LeftForeArm  2.62844 -47.9306 -12.2497
LeftHand  0.544167 -0.930708 -9.93457
RightShoulder  7.05003 12.4209 38.2406
RightArm  -6.15872 5.99374 7.45529
RightForeArm  3.99335 69.7429 33.2788
RightHand  0.176361 -3.2923 11.1228
LeftUpLeg  -16.0693 7.0165 5.16305
LeftLeg  30.307 0.273176 0.513175
LeftFoot  -6.63256 0.569525 -12.8453
LeftToes  2.52163e-011 5.65494e-011 -1.09494e-012
2992
root  -23.6781 39.3676 -16.1765 179.525 73.7057 174.782
RightUpLeg  -19.2188 -13.6044 -0.99184
RightLeg  18.6076 -8.86236 -0.292958
RightFoot  -4.01848 -0.0487382 0.432189
RightToes  1.22775e-009 1.2921e-014 -6.02303e-014
Spine  12.0347 -1.80055 5.6125
Spine1  4.98511 -1.90306 1.96559
HEad  12.473 2.57295 -8.7
LeftShoulder1  1.76469 -1.94765 -26.2285
LeftArm  -4.54581 -20.2147 -32.4738
LeftForeArm  0.793124 -47.7328 -12.2933
LeftHand  0.526159 -0.4633 -10.4311
RightShoulder  7.37537 13.0214 38.5809
RightArm  -7.34111 6.66694 7.70571
RightForeArm  10.6108 72.9785 41.5526
RightHand  0.10069 -3.99056 10.7989
LeftUpLeg  -15.6773 7.40087 5.14315
LeftLeg  27.9982 -0.859608 -0.160925
LeftFoot  -6.27904 0.59582 -12.5895
LeftToes  2.52163e-011 5.65494e-011 -1.09494e-012
2993
root  -23.399 39.5319 -16.09 178.393 74.1558 173.274
RightUpLeg  -18.2184 -13.1781 -1.53392
RightLeg  16.7642 -9.09658 0.724511
RightFoot  -3.52031 -0.0262585 0.12838
RightToes  1.22775e-009 1.2921e-014 -6.02303e-014
Spine  11.7467 -1.74395 4.98326
Spine1  5.03813 -1.8462 1.59368
HEad  13.8435 3.8136 -9.07876
LeftShoulder1  1.74215 -1.86612 -26.3022
LeftArm  -7.14045 -19.1226 -31.4972
LeftForeArm  -1.29899 -49.1516 -13.0952
LeftHand  0.508769 0.185718 -11.4409
RightShoulder  7.58387 13.5699 38.3702
RightArm  -8.40231 7.34574 7.97035
RightForeArm  20.9944 75.8847 54.2915
RightHand  0.00724125 -4.92097 10.767
LeftUpLeg  -14.8549 7.66131 4.69442
LeftLeg  23.2953 -1.75927 -0.503161
LeftFoot  -7.00336 0.523127 -12.6665
LeftToes  2.52163e-011 5.65494e-011 -1.09494e-012
